<svg width="1440" height="299" viewBox="0 0 1440 299" fill="none" xmlns="http://www.w3.org/2000/svg">
<path d="M0 160L14.1 165.3C28.2 171 56 181 85 170.7C112.9 160 141 128 169 144C197.6 160 226 224 254 261.3C282.4 299 311 309 339 288C367.1 267 395 213 424 202.7C451.8 192 480 224 508 202.7C536.5 181 565 107 593 69.3C621.2 32 649 32 678 42.7C705.9 53 734 75 762 80C790.6 85 819 75 847 58.7C875.3 43 904 21 932 58.7C960 96 988 192 1016 208C1044.7 224 1073 160 1101 160C1129.4 160 1158 224 1186 240C1214.1 256 1242 224 1271 202.7C1298.8 181 1327 171 1355 154.7C1383.5 139 1412 117 1426 106.7L1440 96V0H1425.9C1411.8 0 1384 0 1355 0C1327.1 0 1299 0 1271 0C1242.4 0 1214 0 1186 0C1157.6 0 1129 0 1101 0C1072.9 0 1045 0 1016 0C988.2 0 960 0 932 0C903.5 0 875 0 847 0C818.8 0 791 0 762 0C734.1 0 706 0 678 0C649.4 0 621 0 593 0C564.7 0 536 0 508 0C480 0 452 0 424 0C395.3 0 367 0 339 0C310.6 0 282 0 254 0C225.9 0 198 0 169 0C141.2 0 113 0 85 0C56.5 0 28 0 14 0H0V160Z" fill="#C01246"/>
</svg>
