<?xml version="1.0" standalone="no"?><svg xmlns="http://www.w3.org/2000/svg" viewBox="0 0 1440 320"><path fill="#c01246" fill-opacity="1" d="M0,128L11.4,149.3C22.9,171,46,213,69,245.3C91.4,277,114,299,137,277.3C160,256,183,192,206,186.7C228.6,181,251,235,274,234.7C297.1,235,320,181,343,160C365.7,139,389,149,411,170.7C434.3,192,457,224,480,224C502.9,224,526,192,549,149.3C571.4,107,594,53,617,53.3C640,53,663,107,686,122.7C708.6,139,731,117,754,122.7C777.1,128,800,160,823,186.7C845.7,213,869,235,891,213.3C914.3,192,937,128,960,112C982.9,96,1006,128,1029,144C1051.4,160,1074,160,1097,170.7C1120,181,1143,203,1166,197.3C1188.6,192,1211,160,1234,160C1257.1,160,1280,192,1303,218.7C1325.7,245,1349,267,1371,229.3C1394.3,192,1417,96,1429,48L1440,0L1440,0L1428.6,0C1417.1,0,1394,0,1371,0C1348.6,0,1326,0,1303,0C1280,0,1257,0,1234,0C1211.4,0,1189,0,1166,0C1142.9,0,1120,0,1097,0C1074.3,0,1051,0,1029,0C1005.7,0,983,0,960,0C937.1,0,914,0,891,0C868.6,0,846,0,823,0C800,0,777,0,754,0C731.4,0,709,0,686,0C662.9,0,640,0,617,0C594.3,0,571,0,549,0C525.7,0,503,0,480,0C457.1,0,434,0,411,0C388.6,0,366,0,343,0C320,0,297,0,274,0C251.4,0,229,0,206,0C182.9,0,160,0,137,0C114.3,0,91,0,69,0C45.7,0,23,0,11,0L0,0Z"></path></svg>